<svg width="1200" height="1200" viewBox="0 0 1200 1200" fill="none" xmlns="http://www.w3.org/2000/svg">
<path d="M900.982 632.368C935.478 463.125 832.322 293.561 663.281 248.267C488.024 201.307 307.178 305.453 259.811 480.493C230.985 588.074 251.504 705.628 314.311 797.512C359.06 862.93 423.654 913.038 498.028 940.256C704.949 1015.84 927.662 903.468 994.982 701.761C999.82 687.268 996.982 677.602 979.482 673.328L915.982 656.313C901.482 652.102 898.081 646.602 900.982 632.368ZM566.346 820.458C502.524 803.357 449.186 762.468 416.203 705.243C383.199 648.091 374.412 581.608 391.418 517.85C419.662 413.601 527.333 351.572 631.749 379.55C728.887 405.578 789.487 500.437 775.191 597.602C772.543 615.602 775.975 621.435 792.482 625.858L847.509 640.602C863.982 645.102 868.326 651.102 861.996 668.102C818.057 786.097 690.338 853.682 566.346 820.458Z" stroke="#17FFA6" stroke-width="16"/>
</svg>
