<svg width="1200" height="1200" viewBox="0 0 1200 1200" fill="none" xmlns="http://www.w3.org/2000/svg">
<path d="M888 568C888 688.866 813.547 792.341 708 835.066V910H924V838H838.124C912.862 772.035 960 675.523 960 568C960 369.177 798.823 208 600 208C401.177 208 240 369.177 240 568C240 675.523 287.138 772.035 361.876 838H276V910H492V835.066C386.453 792.341 312 688.866 312 568C312 408.941 440.941 280 600 280C759.059 280 888 408.941 888 568Z" fill="url(#paint0_radial)"/>
<path d="M888 568C888 688.866 813.547 792.341 708 835.066V910H924V838H838.124C912.862 772.035 960 675.523 960 568C960 369.177 798.823 208 600 208C401.177 208 240 369.177 240 568C240 675.523 287.138 772.035 361.876 838H276V910H492V835.066C386.453 792.341 312 688.866 312 568C312 408.941 440.941 280 600 280C759.059 280 888 408.941 888 568Z" fill="url(#paint1_radial)"/>
<path d="M888 568C888 688.866 813.547 792.341 708 835.066V910H924V838H838.124C912.862 772.035 960 675.523 960 568C960 369.177 798.823 208 600 208C401.177 208 240 369.177 240 568C240 675.523 287.138 772.035 361.876 838H276V910H492V835.066C386.453 792.341 312 688.866 312 568C312 408.941 440.941 280 600 280C759.059 280 888 408.941 888 568Z" fill="url(#paint2_radial)"/>
<path d="M888 568C888 688.866 813.547 792.341 708 835.066V910H924V838H838.124C912.862 772.035 960 675.523 960 568C960 369.177 798.823 208 600 208C401.177 208 240 369.177 240 568C240 675.523 287.138 772.035 361.876 838H276V910H492V835.066C386.453 792.341 312 688.866 312 568C312 408.941 440.941 280 600 280C759.059 280 888 408.941 888 568Z" fill="url(#paint3_radial)"/>
<defs>
<radialGradient id="paint0_radial" cx="0" cy="0" r="1" gradientUnits="userSpaceOnUse" gradientTransform="translate(240 208) scale(779.082 1163.06)">
<stop stop-color="#FF6E4E"/>
<stop offset="1" stop-color="#FF6E4E" stop-opacity="0"/>
</radialGradient>
<radialGradient id="paint1_radial" cx="0" cy="0" r="1" gradientUnits="userSpaceOnUse" gradientTransform="translate(240 910.734) scale(497.236 748.346)">
<stop stop-color="#FF007A"/>
<stop offset="1" stop-color="#FF007A" stop-opacity="0"/>
</radialGradient>
<radialGradient id="paint2_radial" cx="0" cy="0" r="1" gradientUnits="userSpaceOnUse" gradientTransform="translate(960.339 208) rotate(-180) scale(500.203 761.866)">
<stop stop-color="#0AA1F5"/>
<stop offset="1" stop-color="#0AA1F5" stop-opacity="0"/>
</radialGradient>
<radialGradient id="paint3_radial" cx="0" cy="0" r="1" gradientUnits="userSpaceOnUse" gradientTransform="translate(960.339 910.734) rotate(-180) scale(481.215 491.748)">
<stop stop-color="#7A90FF"/>
<stop offset="1" stop-color="#7A90FF" stop-opacity="0"/>
</radialGradient>
</defs>
</svg>
