<svg width="1200" height="1200" viewBox="0 0 1200 1200" fill="none" xmlns="http://www.w3.org/2000/svg">
<path d="M754.964 451.107C679.149 470.444 579.095 499.206 497.034 524.967C358.443 568.479 240.004 616.624 240.004 654.148V439.648C240.004 374.12 481.735 285.338 685.602 228.306" stroke="#665AEC" stroke-width="16" stroke-linejoin="round"/>
<path fill-rule="evenodd" clip-rule="evenodd" d="M689.119 731.308C617.47 757.223 537.325 783.487 456.002 808.66V978.683C713.806 904.82 960 821.003 960 770.24V582.389C960 620.502 844.602 675.069 689.119 731.308Z" stroke="#665AEC" stroke-width="16" stroke-linejoin="round"/>
<path fill-rule="evenodd" clip-rule="evenodd" d="M497.03 524.97C358.44 568.482 240 616.626 240 654.142C240 727.74 484.961 728.107 689.116 731.306C844.609 675.066 959.998 620.499 959.998 582.378C959.998 530.676 703.786 539.13 497.03 524.97Z" stroke="#665AEC" stroke-width="16" stroke-linejoin="round"/>
<path fill-rule="evenodd" clip-rule="evenodd" d="M724.198 222C789.81 222 842.998 274.17 842.998 338.526C842.998 402.881 789.81 455.052 724.198 455.052C658.587 455.052 605.399 402.881 605.399 338.526C605.399 274.17 658.587 222 724.198 222Z" stroke="#665AEC" stroke-width="16" stroke-linejoin="round"/>
</svg>
